<svg width="20" height="20" viewBox="0 0 20 20" fill="none" xmlns="http://www.w3.org/2000/svg">
<path d="M8.48029 4.20556C8.48584 4.21623 8.49073 4.22534 8.49629 4.23578C8.49984 4.24623 8.47473 4.19645 8.48029 4.20556ZM7.72562 2.01489C7.47207 1.89578 7.12273 1.862 6.83673 2.02756L6.21651 2.38511C6.20384 2.39334 6.19007 2.40156 6.17695 2.41067C4.68384 3.51023 3.99762 5.038 3.92962 6.61423C3.86229 8.18978 4.38673 9.81578 5.24984 11.2371L6.84629 14.0011C6.84718 14.0011 6.84851 14.0022 6.84851 14.0022L6.85207 14.0091C7.6494 15.4651 8.79429 16.728 10.1901 17.456C11.5881 18.1862 13.2561 18.354 14.9541 17.61C14.9681 17.6029 14.9818 17.5971 14.9945 17.5889L15.6147 17.2313C15.9007 17.066 16.0454 16.7456 16.0696 16.4662C16.093 16.1876 16.0363 15.9191 15.9516 15.6513C15.7827 15.1236 15.4925 14.6111 15.2516 14.2591C14.7932 13.4687 14.3523 12.9178 13.8418 12.6122C13.3278 12.3031 12.7112 12.31 12.2076 12.6004L11.4354 13.046C11.2063 13.1782 10.9423 13.1618 10.6623 13.0429C10.3832 12.9233 10.1241 12.6853 10.0278 12.5184L8.12495 9.22223C8.02762 9.05556 7.95051 8.71178 7.9874 8.41089C8.0234 8.10867 8.14362 7.87156 8.37273 7.73956L9.14362 7.29378C9.64584 7.00334 9.96095 6.47223 9.95051 5.87245C9.94095 5.27667 9.68407 4.62023 9.22695 3.82511C9.04295 3.44089 8.74651 2.93511 8.37407 2.52645C8.18518 2.31934 7.97895 2.13289 7.72562 2.01489Z" fill="#444444"/>
</svg>
