<svg width="20" height="49" viewBox="0 0 20 49" fill="none" xmlns="http://www.w3.org/2000/svg">
<path d="M9.1218 36.7928C9.23957 36.9055 9.37845 36.9939 9.53047 37.0529C9.83197 37.1767 10.1701 37.1767 10.4716 37.0529C10.6237 36.9939 10.7625 36.9055 10.8803 36.7928L19.6358 28.0373C19.7513 27.9218 19.8429 27.7848 19.9053 27.6339C19.9678 27.483 20 27.3213 20 27.1581C20 26.9948 19.9678 26.8331 19.9053 26.6822C19.8429 26.5313 19.7513 26.3943 19.6358 26.2788C19.5203 26.1633 19.3833 26.0717 19.2324 26.0092C19.0815 25.9467 18.9198 25.9146 18.7565 25.9146C18.5932 25.9146 18.4315 25.9467 18.2807 26.0092C18.1298 26.0717 17.9927 26.1633 17.8773 26.2788L11.2395 32.929L11.2395 1.23837C11.2395 0.909924 11.109 0.594933 10.8767 0.362686C10.6445 0.130444 10.3295 -3.05176e-05 10.0011 -3.05176e-05C9.67261 -3.05176e-05 9.35762 0.130444 9.12538 0.362686C8.89313 0.594933 8.76266 0.909924 8.76266 1.23837L8.76266 32.929L2.12484 26.2788C2.00913 26.164 1.87189 26.0732 1.72101 26.0116C1.57012 25.9499 1.40856 25.9187 1.24558 25.9197C1.0826 25.9187 0.921034 25.9499 0.770149 26.0116C0.619267 26.0732 0.482033 26.164 0.366316 26.2788C0.250242 26.3939 0.158113 26.5309 0.0952415 26.6818C0.0323696 26.8327 0 26.9946 0 27.1581C0 27.3215 0.0323696 27.4834 0.0952415 27.6343C0.158113 27.7852 0.250242 27.9222 0.366316 28.0373L9.1218 36.7928Z" fill="#E30613"/>
<circle cx="10" cy="47" r="2" fill="#E30613"/>
</svg>
