<svg width="80" height="80" viewBox="0 0 80 80" fill="none" xmlns="http://www.w3.org/2000/svg">
<rect width="80" height="80" fill="#444444"/>
<path fill-rule="evenodd" clip-rule="evenodd" d="M37.4541 39.8128C37.8057 40.1644 37.8039 40.7364 37.4541 41.0862L31.4089 47.1314C31.0573 47.483 31.0539 48.0497 31.408 48.4038L32.0457 49.0415C32.3968 49.3926 32.9683 49.3903 33.3181 49.0406L39.3633 42.9953C39.7149 42.6437 40.2869 42.6456 40.6366 42.9953L46.6818 49.0406C47.0335 49.3922 47.6002 49.3955 47.9543 49.0415L48.592 48.4038C48.9431 48.0527 48.9408 47.4811 48.591 47.1314L42.5458 41.0862C42.1942 40.7345 42.196 40.1626 42.5458 39.8128L48.591 33.7676C48.9427 33.416 48.946 32.8492 48.592 32.4952L47.9543 31.8575C47.6031 31.5064 47.0316 31.5086 46.6818 31.8584L40.6366 37.9036C40.285 38.2553 39.7131 38.2534 39.3633 37.9036L33.3181 31.8584C32.9665 31.5068 32.3997 31.5034 32.0457 31.8575L31.408 32.4952C31.0568 32.8463 31.0591 33.4178 31.4089 33.7676L37.4541 39.8128Z" fill="white"/>
</svg>
