<svg width="80" height="80" viewBox="0 0 80 80" fill="none" xmlns="http://www.w3.org/2000/svg">
<rect width="80" height="80" fill="#444444"/>
<path d="M50.4099 41.11H29.5299C28.8999 41.11 28.3899 40.6 28.3899 39.97C28.3899 39.34 28.8999 38.83 29.5299 38.83H50.4399C51.0699 38.83 51.5799 39.34 51.5799 39.97C51.5799 40.6 51.0699 41.11 50.4099 41.11Z" fill="white"/>
<path d="M50.4099 32.11H29.5299C28.8999 32.11 28.3899 31.6 28.3899 30.97C28.3899 30.34 28.8999 29.83 29.5299 29.83H50.4399C51.0699 29.83 51.5799 30.34 51.5799 30.97C51.5799 31.6 51.0699 32.11 50.4099 32.11Z" fill="white"/>
<path d="M50.4099 50.11H29.5299C28.8999 50.11 28.3899 49.6 28.3899 48.97C28.3899 48.34 28.8999 47.83 29.5299 47.83H50.4399C51.0699 47.83 51.5799 48.34 51.5799 48.97C51.5799 49.6 51.0699 50.11 50.4099 50.11Z" fill="white"/>
</svg>
