<svg width="14" height="14" viewBox="0 0 14 14" fill="none" xmlns="http://www.w3.org/2000/svg">
<path d="M7 1.26087C8.869 1.26087 9.09037 1.26875 9.82887 1.302C10.2726 1.30733 10.7122 1.38903 11.1283 1.5435C11.4326 1.65592 11.7077 1.83535 11.9332 2.0685C12.1664 2.29407 12.3458 2.56919 12.4583 2.8735C12.6127 3.28956 12.6944 3.7291 12.6997 4.17287C12.733 4.91138 12.7409 5.13538 12.7409 7.00175C12.7409 8.86812 12.733 9.09212 12.6997 9.83062C12.6944 10.2744 12.6127 10.7139 12.4583 11.13C12.342 11.432 12.1638 11.7062 11.935 11.935C11.7062 12.1638 11.432 12.342 11.13 12.4583C10.7139 12.6127 10.2744 12.6944 9.83062 12.6997C9.09212 12.733 8.86812 12.7409 7.00175 12.7409C5.13538 12.7409 4.91138 12.733 4.17287 12.6997C3.7291 12.6944 3.28956 12.6127 2.8735 12.4583C2.56919 12.3458 2.29407 12.1664 2.0685 11.9332C1.83535 11.7077 1.65592 11.4326 1.5435 11.1283C1.38903 10.7122 1.30733 10.2726 1.302 9.82887C1.26875 9.09037 1.26087 8.86637 1.26087 7C1.26087 5.13363 1.26875 4.90963 1.302 4.17113C1.30733 3.72735 1.38903 3.28781 1.5435 2.87175C1.65592 2.56744 1.83535 2.29232 2.0685 2.06675C2.29407 1.8336 2.56919 1.65417 2.8735 1.54175C3.28956 1.38728 3.7291 1.30558 4.17287 1.30025C4.91138 1.267 5.13538 1.25912 7.00175 1.25912M7 0C5.09862 0 4.86062 0.007875 4.1125 0.042C3.53234 0.053798 2.95837 0.163857 2.415 0.3675C1.94772 0.542989 1.52452 0.81865 1.17513 1.17513C0.81865 1.52452 0.542989 1.94772 0.3675 2.415C0.163857 2.95837 0.053798 3.53234 0.042 4.1125C0.007875 4.86062 0 5.09862 0 7C0 8.90137 0.007875 9.13937 0.042 9.8875C0.053798 10.4677 0.163857 11.0416 0.3675 11.585C0.542989 12.0523 0.81865 12.4755 1.17513 12.8249C1.52452 13.1813 1.94772 13.457 2.415 13.6325C2.95893 13.8363 3.5335 13.9464 4.11425 13.958C4.86063 13.9921 5.09862 14 7 14C8.90137 14 9.13937 13.9921 9.8875 13.958C10.4683 13.9464 11.0428 13.8363 11.5868 13.6325C12.0517 13.4525 12.474 13.1774 12.8266 12.8248C13.1792 12.4723 13.4543 12.05 13.6342 11.585C13.8381 11.0411 13.9481 10.4665 13.9598 9.88575C13.9939 9.13938 14.0018 8.90137 14.0018 6.99825C14.0018 5.09513 13.9939 4.85887 13.9598 4.11075C13.9472 3.53108 13.8365 2.95772 13.6325 2.415C13.457 1.94772 13.1813 1.52452 12.8249 1.17513C12.4755 0.81865 12.0523 0.542989 11.585 0.3675C11.0416 0.163857 10.4677 0.053798 9.8875 0.042C9.13937 0.007875 8.90137 0 7 0Z" fill="white"/>
<path d="M7.00075 3.40625C6.28983 3.40625 5.59487 3.61706 5.00375 4.01203C4.41264 4.407 3.95193 4.96839 3.67987 5.62519C3.40781 6.282 3.33662 7.00474 3.47532 7.702C3.61401 8.39927 3.95636 9.03975 4.45906 9.54245C4.96176 10.0451 5.60223 10.3875 6.2995 10.5262C6.99676 10.6649 7.7195 10.5937 8.37631 10.3216C9.03312 10.0496 9.5945 9.58886 9.98947 8.99775C10.3844 8.40663 10.5953 7.71167 10.5953 7.00075C10.5953 6.52871 10.5023 6.0613 10.3216 5.62519C10.141 5.18909 9.87623 4.79283 9.54245 4.45905C9.20867 4.12527 8.81241 3.86051 8.37631 3.67987C7.9402 3.49922 7.47279 3.40625 7.00075 3.40625ZM7.00075 9.33437C6.5392 9.33437 6.08802 9.19751 5.70426 8.94109C5.3205 8.68467 5.02139 8.3202 4.84476 7.89379C4.66814 7.46738 4.62192 6.99816 4.71197 6.54548C4.80201 6.0928 5.02427 5.67699 5.35063 5.35063C5.67699 5.02426 6.0928 4.80201 6.54548 4.71197C6.99816 4.62192 7.46738 4.66813 7.89379 4.84476C8.32021 5.02139 8.68467 5.32049 8.94109 5.70426C9.19751 6.08802 9.33438 6.5392 9.33438 7.00075C9.33438 7.61967 9.08851 8.21323 8.65087 8.65087C8.21323 9.08851 7.61967 9.33437 7.00075 9.33437Z" fill="white"/>
<path d="M10.7365 4.10383C11.2004 4.10383 11.5765 3.72775 11.5765 3.26383C11.5765 2.79991 11.2004 2.42383 10.7365 2.42383C10.2726 2.42383 9.89648 2.79991 9.89648 3.26383C9.89648 3.72775 10.2726 4.10383 10.7365 4.10383Z" fill="white"/>
</svg>
