<svg width="13" height="13" viewBox="0 0 13 13" fill="none" xmlns="http://www.w3.org/2000/svg">
<path d="M12.354 0.0810547H0.565217C0.242236 0.0810547 0 0.323291 0 0.646272V12.5158C0 12.7581 0.242236 13.0003 0.565217 13.0003H12.4348C12.7578 13.0003 13 12.7581 13 12.4351V0.646272C12.9193 0.323291 12.677 0.0810547 12.354 0.0810547ZM3.79503 11.0624H1.93789V4.92578H3.87578V11.0624H3.79503ZM2.90683 4.11832C2.26087 4.11832 1.7764 3.5531 1.7764 2.98789C1.7764 2.34192 2.26087 1.85745 2.90683 1.85745C3.55279 1.85745 4.03727 2.34192 4.03727 2.98789C3.95652 3.5531 3.47205 4.11832 2.90683 4.11832ZM10.9814 11.0624H9.04348V8.07484C9.04348 7.34813 9.04348 6.45994 8.07453 6.45994C7.10559 6.45994 6.9441 7.26739 6.9441 8.07484V11.1432H5.00621V4.92578H6.86335V5.73323C7.10559 5.24876 7.75155 4.76428 8.63975 4.76428C10.5776 4.76428 10.9006 6.05621 10.9006 7.67112V11.0624H10.9814Z" fill="white"/>
</svg>
