<svg width="80" height="82" viewBox="0 0 80 82" fill="none" xmlns="http://www.w3.org/2000/svg">
<rect x="1.3291" y="0.5" width="78.1709" height="80.8547" stroke="white"/>
<path d="M45.3776 41.5647C45.3714 41.2989 45.2668 41.0449 45.0841 40.8518L38.643 34.1424C38.4449 33.9376 38.1736 33.8198 37.8887 33.8147C37.6037 33.8097 37.3284 33.9178 37.1231 34.1154C36.9177 34.3129 36.7991 34.5839 36.7932 34.8688C36.7873 35.1537 36.8945 35.4293 37.0915 35.6352L42.8196 41.5982L37.0915 47.5612C36.8945 47.7672 36.7873 48.0428 36.7932 48.3277C36.7991 48.6126 36.9177 48.8835 37.1231 49.0811C37.3284 49.2786 37.6037 49.3867 37.8887 49.3817C38.1736 49.3766 38.4449 49.2588 38.643 49.054L45.0841 42.3446C45.1825 42.2407 45.2592 42.1182 45.3096 41.9843C45.36 41.8503 45.3831 41.7077 45.3776 41.5647Z" fill="white"/>
</svg>
