<svg width="80" height="80" viewBox="0 0 80 80" fill="none" xmlns="http://www.w3.org/2000/svg">
<circle cx="40.0004" cy="40.0004" r="40.0004" transform="matrix(1 0 0 -1 0 80.001)" fill="#FE6020"/>
<g clip-path="url(#clip0_149_2347)">
<path d="M47.5113 39.4273L34.4266 32.2307C34.3262 32.1749 34.2129 32.1464 34.0981 32.1483C33.9832 32.1501 33.8709 32.1822 33.7724 32.2412C33.6757 32.2997 33.5958 32.3823 33.5406 32.4809C33.4853 32.5795 33.4565 32.6908 33.457 32.8038V47.1969C33.4572 47.3106 33.487 47.4223 33.5434 47.5209C33.5998 47.6196 33.681 47.7018 33.7789 47.7596C33.8793 47.8198 33.9942 47.8515 34.1113 47.8512C34.2215 47.8511 34.33 47.8232 34.4266 47.77L47.5113 40.5735C47.6138 40.517 47.6994 40.434 47.759 40.3332C47.8185 40.2324 47.85 40.1175 47.85 40.0004C47.85 39.8833 47.8185 39.7683 47.759 39.6675C47.6994 39.5667 47.6138 39.4837 47.5113 39.4273Z" fill="#FBFBFB"/>
</g>
<defs>
<clipPath id="clip0_149_2347">
<rect width="15.7016" height="15.7016" fill="white" transform="translate(32.1484 32.1497)"/>
</clipPath>
</defs>
</svg>
