<svg width="80" height="82" viewBox="0 0 80 82" fill="none" xmlns="http://www.w3.org/2000/svg">
<rect x="78.6709" y="81.3547" width="78.1709" height="80.8547" transform="rotate(-180 78.6709 81.3547)" stroke="white"/>
<path d="M34.6226 40.2901C34.6288 40.5558 34.7334 40.8098 34.9161 41.0029L41.3572 47.7123C41.5554 47.9171 41.8267 48.0349 42.1116 48.04C42.3965 48.0451 42.6718 47.9369 42.8771 47.7394C43.0825 47.5418 43.2011 47.2709 43.2071 46.986C43.213 46.7011 43.1057 46.4255 42.9087 46.2195L37.1806 40.2565L42.9087 34.2935C43.1057 34.0876 43.213 33.812 43.2071 33.5271C43.2011 33.2422 43.0825 32.9712 42.8772 32.7737C42.6718 32.5761 42.3965 32.468 42.1116 32.4731C41.8267 32.4781 41.5554 32.596 41.3572 32.8007L34.9161 39.5101C34.8177 39.614 34.741 39.7365 34.6906 39.8705C34.6402 40.0044 34.6171 40.1471 34.6226 40.2901Z" fill="white"/>
</svg>
