<svg width="70" height="60" viewBox="0 0 70 60" fill="none" xmlns="http://www.w3.org/2000/svg">
<path d="M3.64995 13.084C3.08995 13.084 2.58595 12.988 2.13795 12.796C1.68995 12.596 1.33795 12.316 1.08195 11.956C0.825953 11.596 0.697953 11.176 0.697953 10.696H2.16195C2.19395 11.056 2.33395 11.352 2.58195 11.584C2.83795 11.816 3.19395 11.932 3.64995 11.932C4.12195 11.932 4.48995 11.82 4.75395 11.596C5.01795 11.364 5.14995 11.068 5.14995 10.708C5.14995 10.428 5.06595 10.2 4.89795 10.024C4.73795 9.848 4.53395 9.712 4.28595 9.616C4.04595 9.52 3.70995 9.416 3.27795 9.304C2.73395 9.16 2.28995 9.016 1.94595 8.872C1.60995 8.72 1.32195 8.488 1.08195 8.176C0.841953 7.864 0.721953 7.448 0.721953 6.928C0.721953 6.448 0.841953 6.028 1.08195 5.668C1.32195 5.308 1.65795 5.032 2.08995 4.84C2.52195 4.648 3.02195 4.552 3.58995 4.552C4.39795 4.552 5.05795 4.756 5.56995 5.164C6.08995 5.564 6.37795 6.116 6.43395 6.82H4.92195C4.89795 6.516 4.75395 6.256 4.48995 6.04C4.22595 5.824 3.87795 5.716 3.44595 5.716C3.05395 5.716 2.73395 5.816 2.48595 6.016C2.23795 6.216 2.11395 6.504 2.11395 6.88C2.11395 7.136 2.18995 7.348 2.34195 7.516C2.50195 7.676 2.70195 7.804 2.94195 7.9C3.18195 7.996 3.50995 8.1 3.92595 8.212C4.47795 8.364 4.92595 8.516 5.26995 8.668C5.62195 8.82 5.91795 9.056 6.15795 9.376C6.40595 9.688 6.52995 10.108 6.52995 10.636C6.52995 11.06 6.41395 11.46 6.18195 11.836C5.95795 12.212 5.62595 12.516 5.18595 12.748C4.75395 12.972 4.24195 13.084 3.64995 13.084ZM7.68814 9.688C7.68814 9.008 7.82414 8.412 8.09614 7.9C8.37614 7.38 8.76014 6.98 9.24814 6.7C9.73614 6.42 10.2961 6.28 10.9281 6.28C11.7281 6.28 12.3881 6.472 12.9081 6.856C13.4361 7.232 13.7921 7.772 13.9761 8.476H12.5001C12.3801 8.148 12.1881 7.892 11.9241 7.708C11.6601 7.524 11.3281 7.432 10.9281 7.432C10.3681 7.432 9.92014 7.632 9.58414 8.032C9.25614 8.424 9.09214 8.976 9.09214 9.688C9.09214 10.4 9.25614 10.956 9.58414 11.356C9.92014 11.756 10.3681 11.956 10.9281 11.956C11.7201 11.956 12.2441 11.608 12.5001 10.912H13.9761C13.7841 11.584 13.4241 12.12 12.8961 12.52C12.3681 12.912 11.7121 13.108 10.9281 13.108C10.2961 13.108 9.73614 12.968 9.24814 12.688C8.76014 12.4 8.37614 12 8.09614 11.488C7.82414 10.968 7.68814 10.368 7.68814 9.688ZM16.7075 7.348C16.9075 7.012 17.1715 6.752 17.4995 6.568C17.8355 6.376 18.2315 6.28 18.6875 6.28V7.696H18.3395C17.8035 7.696 17.3955 7.832 17.1155 8.104C16.8435 8.376 16.7075 8.848 16.7075 9.52V13H15.3395V6.388H16.7075V7.348ZM22.8129 13.108C22.1889 13.108 21.6249 12.968 21.1209 12.688C20.6169 12.4 20.2209 12 19.9329 11.488C19.6449 10.968 19.5009 10.368 19.5009 9.688C19.5009 9.016 19.6489 8.42 19.9449 7.9C20.2409 7.38 20.6449 6.98 21.1569 6.7C21.6689 6.42 22.2409 6.28 22.8729 6.28C23.5049 6.28 24.0769 6.42 24.5889 6.7C25.1009 6.98 25.5049 7.38 25.8009 7.9C26.0969 8.42 26.2449 9.016 26.2449 9.688C26.2449 10.36 26.0929 10.956 25.7889 11.476C25.4849 11.996 25.0689 12.4 24.5409 12.688C24.0209 12.968 23.4449 13.108 22.8129 13.108ZM22.8129 11.92C23.1649 11.92 23.4929 11.836 23.7969 11.668C24.1089 11.5 24.3609 11.248 24.5529 10.912C24.7449 10.576 24.8409 10.168 24.8409 9.688C24.8409 9.208 24.7489 8.804 24.5649 8.476C24.3809 8.14 24.1369 7.888 23.8329 7.72C23.5289 7.552 23.2009 7.468 22.8489 7.468C22.4969 7.468 22.1689 7.552 21.8649 7.72C21.5689 7.888 21.3329 8.14 21.1569 8.476C20.9809 8.804 20.8929 9.208 20.8929 9.688C20.8929 10.4 21.0729 10.952 21.4329 11.344C21.8009 11.728 22.2609 11.92 22.8129 11.92ZM28.9653 4.12V13H27.5973V4.12H28.9653ZM32.1293 4.12V13H30.7613V4.12H32.1293ZM39.7666 4.66C40.6546 4.66 41.4306 4.832 42.0946 5.176C42.7666 5.512 43.2826 6 43.6426 6.64C44.0106 7.272 44.1946 8.012 44.1946 8.86C44.1946 9.708 44.0106 10.444 43.6426 11.068C43.2826 11.692 42.7666 12.172 42.0946 12.508C41.4306 12.836 40.6546 13 39.7666 13H37.0426V4.66H39.7666ZM39.7666 11.884C40.7426 11.884 41.4906 11.62 42.0106 11.092C42.5306 10.564 42.7906 9.82 42.7906 8.86C42.7906 7.892 42.5306 7.136 42.0106 6.592C41.4906 6.048 40.7426 5.776 39.7666 5.776H38.4106V11.884H39.7666ZM48.4184 13.108C47.7944 13.108 47.2304 12.968 46.7264 12.688C46.2224 12.4 45.8264 12 45.5384 11.488C45.2504 10.968 45.1064 10.368 45.1064 9.688C45.1064 9.016 45.2544 8.42 45.5504 7.9C45.8464 7.38 46.2504 6.98 46.7624 6.7C47.2744 6.42 47.8464 6.28 48.4784 6.28C49.1104 6.28 49.6824 6.42 50.1944 6.7C50.7064 6.98 51.1104 7.38 51.4064 7.9C51.7024 8.42 51.8504 9.016 51.8504 9.688C51.8504 10.36 51.6984 10.956 51.3944 11.476C51.0904 11.996 50.6744 12.4 50.1464 12.688C49.6264 12.968 49.0504 13.108 48.4184 13.108ZM48.4184 11.92C48.7704 11.92 49.0984 11.836 49.4024 11.668C49.7144 11.5 49.9664 11.248 50.1584 10.912C50.3504 10.576 50.4464 10.168 50.4464 9.688C50.4464 9.208 50.3544 8.804 50.1704 8.476C49.9864 8.14 49.7424 7.888 49.4384 7.72C49.1344 7.552 48.8064 7.468 48.4544 7.468C48.1024 7.468 47.7744 7.552 47.4704 7.72C47.1744 7.888 46.9384 8.14 46.7624 8.476C46.5864 8.804 46.4984 9.208 46.4984 9.688C46.4984 10.4 46.6784 10.952 47.0384 11.344C47.4064 11.728 47.8664 11.92 48.4184 11.92ZM62.0827 6.388L60.0307 13H58.5907L57.2587 8.116L55.9267 13H54.4867L52.4227 6.388H53.8147L55.1947 11.704L56.5987 6.388H58.0267L59.3707 11.68L60.7387 6.388H62.0827ZM66.4411 6.28C66.9611 6.28 67.4251 6.388 67.8331 6.604C68.2491 6.82 68.5731 7.14 68.8051 7.564C69.0371 7.988 69.1531 8.5 69.1531 9.1V13H67.7971V9.304C67.7971 8.712 67.6491 8.26 67.3531 7.948C67.0571 7.628 66.6531 7.468 66.1411 7.468C65.6291 7.468 65.2211 7.628 64.9171 7.948C64.6211 8.26 64.4731 8.712 64.4731 9.304V13H63.1051V6.388H64.4731V7.144C64.6971 6.872 64.9811 6.66 65.3251 6.508C65.6771 6.356 66.0491 6.28 66.4411 6.28Z" fill="white"/>
<path d="M35 56C37.9705 56 40.8192 54.82 42.9196 52.7196C45.02 50.6192 46.2 47.7704 46.2 44.8V35.2C46.2 32.2296 45.02 29.3808 42.9196 27.2804C40.8192 25.18 37.9705 24 35 24C32.0296 24 29.1809 25.18 27.0805 27.2804C24.98 29.3808 23.8 32.2296 23.8 35.2V44.8C23.8 47.7704 24.98 50.6192 27.0805 52.7196C29.1809 54.82 32.0296 56 35 56ZM25.4 35.2C25.4 32.6539 26.4115 30.2121 28.2118 28.4118C30.0122 26.6114 32.454 25.6 35 25.6C37.5461 25.6 39.9879 26.6114 41.7883 28.4118C43.5886 30.2121 44.6 32.6539 44.6 35.2V44.8C44.6 47.3461 43.5886 49.7879 41.7883 51.5882C39.9879 53.3886 37.5461 54.4 35 54.4C32.454 54.4 30.0122 53.3886 28.2118 51.5882C26.4115 49.7879 25.4 47.3461 25.4 44.8V35.2Z" fill="white"/>
<path d="M34.2001 39.6H34.2721L34.4321 39.768C34.5064 39.843 34.5949 39.9025 34.6924 39.9431C34.7899 39.9837 34.8945 40.0046 35.0001 40.0046C35.1057 40.0046 35.2102 39.9837 35.3077 39.9431C35.4052 39.9025 35.4937 39.843 35.5681 39.768L35.7281 39.6H35.8001V39.528L40.3681 34.968L39.2321 33.832L35.8001 37.272V28.8H34.2001V37.272L30.7681 33.832L29.6321 34.968L34.2001 39.528V39.6Z" fill="white"/>
</svg>
