<svg width="49" height="51" viewBox="0 0 49 51" fill="none" xmlns="http://www.w3.org/2000/svg">
<rect x="48.4999" y="50.1611" width="47.9999" height="49.6609" transform="rotate(-180 48.4999 50.1611)" stroke="#757575"/>
<path d="M21.4285 24.9363C21.4323 25.1008 21.497 25.258 21.6101 25.3775L25.5966 29.53C25.7192 29.6568 25.8871 29.7297 26.0635 29.7328C26.2398 29.7359 26.4102 29.669 26.5373 29.5468C26.6644 29.4245 26.7378 29.2568 26.7415 29.0805C26.7451 28.9041 26.6788 28.7336 26.5569 28.6061L23.0116 24.9155L26.5569 21.225C26.6788 21.0975 26.7451 20.9269 26.7415 20.7506C26.7378 20.5743 26.6644 20.4066 26.5373 20.2843C26.4102 20.162 26.2398 20.0951 26.0635 20.0983C25.8872 20.1014 25.7193 20.1743 25.5966 20.301L21.6101 24.4536C21.5492 24.5179 21.5018 24.5937 21.4706 24.6766C21.4394 24.7595 21.4251 24.8478 21.4285 24.9363Z" fill="#757575"/>
</svg>
