<svg width="14" height="14" viewBox="0 0 14 14" fill="none" xmlns="http://www.w3.org/2000/svg">
<path d="M14 7.04244C13.9998 5.69647 13.6164 4.37874 12.8951 3.24523C12.1737 2.11172 11.1447 1.20992 9.92977 0.646581C8.71487 0.0832425 7.36499 -0.11804 6.03993 0.0665642C4.71487 0.251168 3.47012 0.813927 2.45306 1.68822C1.43599 2.56251 0.689201 3.71171 0.301092 4.99979C-0.0870168 6.28786 -0.100189 7.66085 0.263135 8.95623C0.626458 10.2516 1.35106 11.4151 2.35116 12.309C3.35126 13.2029 4.58498 13.7897 5.90625 14V9.07853H4.12883V7.04244H5.90625V5.49058C5.90625 3.72566 6.95158 2.75017 8.54992 2.75017C9.075 2.75774 9.59885 2.80364 10.1173 2.88751V4.62132H9.23417C8.96831 4.58581 8.69932 4.65799 8.48634 4.82199C8.27336 4.98599 8.13382 5.22837 8.09842 5.49586C8.08841 5.57077 8.08684 5.64657 8.09375 5.72183V7.04244H10.0333L9.723 9.07853H8.08967V14C9.73702 13.7388 11.2376 12.8944 12.3211 11.6189C13.4047 10.3433 14 8.72043 14 7.04244Z" fill="white"/>
</svg>
