<svg width="49" height="51" viewBox="0 0 49 51" fill="none" xmlns="http://www.w3.org/2000/svg">
<rect x="48.4999" y="50.1611" width="47.9999" height="49.6609" transform="rotate(-180 48.4999 50.1611)" stroke="#757575"/>
<path d="M26.741 24.8945C26.7372 24.73 26.6724 24.5728 26.5594 24.4533L22.5729 20.3008C22.4502 20.1741 22.2823 20.1011 22.106 20.098C21.9297 20.0949 21.7593 20.1618 21.6322 20.2841C21.5051 20.4063 21.4317 20.574 21.428 20.7503C21.4243 20.9267 21.4907 21.0972 21.6126 21.2247L25.1579 24.9153L21.6126 28.6059C21.4907 28.7333 21.4243 28.9039 21.428 29.0802C21.4317 29.2566 21.5051 29.4242 21.6322 29.5465C21.7593 29.6688 21.9297 29.7357 22.106 29.7326C22.2823 29.7294 22.4502 29.6565 22.5729 29.5298L26.5594 25.3772C26.6203 25.313 26.6677 25.2371 26.6989 25.1542C26.7301 25.0713 26.7444 24.983 26.741 24.8945Z" fill="#757575"/>
</svg>
