<svg width="20" height="20" viewBox="0 0 20 20" fill="none" xmlns="http://www.w3.org/2000/svg">
<path d="M2.4001 4.60001C2.33558 4.60001 2.27262 4.61061 2.2126 4.62501L9.6376 11.275C9.80786 11.4274 10.1923 11.4274 10.3626 11.275L17.7876 4.62501C17.7276 4.61061 17.6646 4.60001 17.6001 4.60001H2.4001ZM1.63134 5.18751C1.61294 5.25515 1.6001 5.32635 1.6001 5.40001V14.6C1.6001 14.6715 1.6139 14.7404 1.63134 14.8063L6.9751 9.96877L1.63134 5.18751ZM18.3689 5.18751L13.0251 9.96877L18.3689 14.8063C18.3863 14.7404 18.4001 14.6715 18.4001 14.6V5.40001C18.4001 5.32635 18.3873 5.25515 18.3689 5.18751ZM7.5751 10.5062L2.20634 15.3688C2.2687 15.3842 2.33282 15.4 2.4001 15.4H17.6001C17.6674 15.4 17.7315 15.3842 17.7939 15.3688L12.4251 10.5062L10.9001 11.8688C10.3914 12.3241 9.6088 12.3241 9.1001 11.8688L7.5751 10.5062Z" fill="#444444"/>
</svg>
