<svg width="20" height="20" viewBox="0 0 20 20" fill="none" xmlns="http://www.w3.org/2000/svg">
<g clip-path="url(#clip0)">
<path d="M9.99514 0C8.09025 0.00262744 6.26427 0.761186 4.91823 2.10908C3.5722 3.45698 2.81616 5.284 2.81616 7.18889C2.81616 11.1552 9.99514 20.0099 9.99514 20.0099C9.99514 20.0099 17.184 11.1552 17.184 7.18889C17.184 5.28228 16.4266 3.45376 15.0785 2.10558C13.7303 0.757399 11.9018 0 9.99514 0ZM9.99514 10.5503C9.34012 10.5503 8.69981 10.3561 8.15518 9.99218C7.61055 9.62826 7.18606 9.11102 6.93539 8.50586C6.68473 7.9007 6.61914 7.2348 6.74693 6.59236C6.87472 5.94993 7.19014 5.35981 7.65331 4.89664C8.11648 4.43347 8.70659 4.11805 9.34903 3.99026C9.99147 3.86247 10.6574 3.92806 11.2625 4.17872C11.8677 4.42939 12.3849 4.85388 12.7488 5.39851C13.1128 5.94314 13.307 6.58345 13.307 7.23847C13.307 7.67339 13.2213 8.10405 13.0549 8.50586C12.8885 8.90767 12.6445 9.27277 12.337 9.5803C12.0294 9.88784 11.6643 10.1318 11.2625 10.2982C10.8607 10.4647 10.4301 10.5503 9.99514 10.5503Z" fill="#444444"/>
</g>
<defs>
<clipPath id="clip0">
<rect width="20" height="20" fill="white"/>
</clipPath>
</defs>
</svg>
